<mxfile host="app.diagrams.net" agent="Mozilla/5.0 (Windows NT 10.0; Win64; x64) AppleWebKit/537.36 (KHTML, like Gecko) Chrome/139.0.0.0 Safari/537.36" version="28.1.2">
  <diagram name="Page-1" id="RlE6GQ5WJNxMyauFKvJG">
    <mxGraphModel dx="1123" dy="644" grid="1" gridSize="10" guides="1" tooltips="1" connect="1" arrows="1" fold="1" page="1" pageScale="1" pageWidth="850" pageHeight="1100" math="0" shadow="0">
      <root>
        <mxCell id="0" />
        <mxCell id="1" parent="0" />
        <mxCell id="Pn55WwUbl9glCkxLtIN9-3" value="1.1&lt;br&gt;Input data customer" style="ellipse;whiteSpace=wrap;html=1;aspect=fixed;" vertex="1" parent="1">
          <mxGeometry x="160" y="340" width="80" height="80" as="geometry" />
        </mxCell>
        <mxCell id="Pn55WwUbl9glCkxLtIN9-4" value="1.3&lt;br&gt;Pencarian Kursi" style="ellipse;whiteSpace=wrap;html=1;aspect=fixed;" vertex="1" parent="1">
          <mxGeometry x="300" y="390" width="80" height="80" as="geometry" />
        </mxCell>
        <mxCell id="Pn55WwUbl9glCkxLtIN9-5" value="&lt;div&gt;1.5&lt;/div&gt;Penerbitan Tiket" style="ellipse;whiteSpace=wrap;html=1;aspect=fixed;" vertex="1" parent="1">
          <mxGeometry x="30" y="290" width="80" height="80" as="geometry" />
        </mxCell>
        <mxCell id="Pn55WwUbl9glCkxLtIN9-6" value="1.2&lt;br&gt;Pencarian Jadwal" style="ellipse;whiteSpace=wrap;html=1;aspect=fixed;" vertex="1" parent="1">
          <mxGeometry x="440" y="160" width="80" height="80" as="geometry" />
        </mxCell>
        <mxCell id="Pn55WwUbl9glCkxLtIN9-7" value="&lt;div&gt;1.4&lt;/div&gt;Konfirmasi Pemesanan" style="ellipse;whiteSpace=wrap;html=1;aspect=fixed;" vertex="1" parent="1">
          <mxGeometry x="740" y="190" width="80" height="80" as="geometry" />
        </mxCell>
        <mxCell id="Pn55WwUbl9glCkxLtIN9-9" value="Customer" style="rounded=0;whiteSpace=wrap;html=1;" vertex="1" parent="1">
          <mxGeometry x="140" y="170" width="120" height="60" as="geometry" />
        </mxCell>
        <mxCell id="Pn55WwUbl9glCkxLtIN9-12" value="" style="endArrow=classic;html=1;rounded=0;entryX=0.5;entryY=0;entryDx=0;entryDy=0;" edge="1" parent="1" source="Pn55WwUbl9glCkxLtIN9-9" target="Pn55WwUbl9glCkxLtIN9-3">
          <mxGeometry width="50" height="50" relative="1" as="geometry">
            <mxPoint x="410" y="410" as="sourcePoint" />
            <mxPoint x="460" y="360" as="targetPoint" />
          </mxGeometry>
        </mxCell>
        <mxCell id="Pn55WwUbl9glCkxLtIN9-13" value="Data Customer" style="edgeLabel;html=1;align=center;verticalAlign=middle;resizable=0;points=[];" vertex="1" connectable="0" parent="Pn55WwUbl9glCkxLtIN9-12">
          <mxGeometry x="-0.0583" y="3" relative="1" as="geometry">
            <mxPoint as="offset" />
          </mxGeometry>
        </mxCell>
        <mxCell id="Pn55WwUbl9glCkxLtIN9-18" value="" style="endArrow=classic;html=1;rounded=0;entryX=0.5;entryY=1;entryDx=0;entryDy=0;" edge="1" parent="1" source="Pn55WwUbl9glCkxLtIN9-16" target="Pn55WwUbl9glCkxLtIN9-6">
          <mxGeometry width="50" height="50" relative="1" as="geometry">
            <mxPoint x="430" y="330" as="sourcePoint" />
            <mxPoint x="460" y="360" as="targetPoint" />
          </mxGeometry>
        </mxCell>
        <mxCell id="Pn55WwUbl9glCkxLtIN9-21" value="" style="group" vertex="1" connectable="0" parent="1">
          <mxGeometry x="410" y="330" width="140" height="30" as="geometry" />
        </mxCell>
        <mxCell id="Pn55WwUbl9glCkxLtIN9-16" value="Jadwal Penerbangan" style="text;html=1;align=center;verticalAlign=middle;resizable=0;points=[];autosize=1;strokeColor=none;fillColor=none;" vertex="1" parent="Pn55WwUbl9glCkxLtIN9-21">
          <mxGeometry width="140" height="30" as="geometry" />
        </mxCell>
        <mxCell id="Pn55WwUbl9glCkxLtIN9-17" value="" style="endArrow=none;html=1;rounded=0;" edge="1" parent="Pn55WwUbl9glCkxLtIN9-21">
          <mxGeometry width="50" height="50" relative="1" as="geometry">
            <mxPoint x="5" as="sourcePoint" />
            <mxPoint x="135" as="targetPoint" />
          </mxGeometry>
        </mxCell>
        <mxCell id="Pn55WwUbl9glCkxLtIN9-20" value="" style="endArrow=none;html=1;rounded=0;" edge="1" parent="Pn55WwUbl9glCkxLtIN9-21">
          <mxGeometry width="50" height="50" relative="1" as="geometry">
            <mxPoint x="5" y="30" as="sourcePoint" />
            <mxPoint x="135" y="30" as="targetPoint" />
          </mxGeometry>
        </mxCell>
        <mxCell id="Pn55WwUbl9glCkxLtIN9-22" value="" style="group" vertex="1" connectable="0" parent="1">
          <mxGeometry x="270" y="580" width="140" height="30" as="geometry" />
        </mxCell>
        <mxCell id="Pn55WwUbl9glCkxLtIN9-23" value="Data Kursi" style="text;html=1;align=center;verticalAlign=middle;resizable=0;points=[];autosize=1;strokeColor=none;fillColor=none;" vertex="1" parent="Pn55WwUbl9glCkxLtIN9-22">
          <mxGeometry x="30" width="80" height="30" as="geometry" />
        </mxCell>
        <mxCell id="Pn55WwUbl9glCkxLtIN9-24" value="" style="endArrow=none;html=1;rounded=0;" edge="1" parent="Pn55WwUbl9glCkxLtIN9-22">
          <mxGeometry width="50" height="50" relative="1" as="geometry">
            <mxPoint x="5" as="sourcePoint" />
            <mxPoint x="135" as="targetPoint" />
          </mxGeometry>
        </mxCell>
        <mxCell id="Pn55WwUbl9glCkxLtIN9-25" value="" style="endArrow=none;html=1;rounded=0;" edge="1" parent="Pn55WwUbl9glCkxLtIN9-22">
          <mxGeometry width="50" height="50" relative="1" as="geometry">
            <mxPoint x="5" y="30" as="sourcePoint" />
            <mxPoint x="135" y="30" as="targetPoint" />
          </mxGeometry>
        </mxCell>
        <mxCell id="Pn55WwUbl9glCkxLtIN9-26" value="" style="endArrow=classic;html=1;rounded=0;entryX=0.5;entryY=1;entryDx=0;entryDy=0;" edge="1" parent="1" source="Pn55WwUbl9glCkxLtIN9-23" target="Pn55WwUbl9glCkxLtIN9-4">
          <mxGeometry width="50" height="50" relative="1" as="geometry">
            <mxPoint x="350" y="560" as="sourcePoint" />
            <mxPoint x="620" y="430" as="targetPoint" />
          </mxGeometry>
        </mxCell>
        <mxCell id="Pn55WwUbl9glCkxLtIN9-27" value="" style="group" vertex="1" connectable="0" parent="1">
          <mxGeometry x="600" y="410" width="140" height="30" as="geometry" />
        </mxCell>
        <mxCell id="Pn55WwUbl9glCkxLtIN9-28" value="Data Pemesanan" style="text;html=1;align=center;verticalAlign=middle;resizable=0;points=[];autosize=1;strokeColor=none;fillColor=none;" vertex="1" parent="Pn55WwUbl9glCkxLtIN9-27">
          <mxGeometry x="10" width="120" height="30" as="geometry" />
        </mxCell>
        <mxCell id="Pn55WwUbl9glCkxLtIN9-29" value="" style="endArrow=none;html=1;rounded=0;" edge="1" parent="Pn55WwUbl9glCkxLtIN9-27">
          <mxGeometry width="50" height="50" relative="1" as="geometry">
            <mxPoint x="5" as="sourcePoint" />
            <mxPoint x="135" as="targetPoint" />
          </mxGeometry>
        </mxCell>
        <mxCell id="Pn55WwUbl9glCkxLtIN9-30" value="" style="endArrow=none;html=1;rounded=0;" edge="1" parent="Pn55WwUbl9glCkxLtIN9-27">
          <mxGeometry width="50" height="50" relative="1" as="geometry">
            <mxPoint x="5" y="30" as="sourcePoint" />
            <mxPoint x="135" y="30" as="targetPoint" />
          </mxGeometry>
        </mxCell>
        <mxCell id="Pn55WwUbl9glCkxLtIN9-31" value="" style="endArrow=classic;html=1;rounded=0;entryX=0.5;entryY=1;entryDx=0;entryDy=0;" edge="1" parent="1" target="Pn55WwUbl9glCkxLtIN9-7">
          <mxGeometry width="50" height="50" relative="1" as="geometry">
            <mxPoint x="690" y="410" as="sourcePoint" />
            <mxPoint x="620" y="430" as="targetPoint" />
            <Array as="points">
              <mxPoint x="690" y="320" />
              <mxPoint x="780" y="320" />
            </Array>
          </mxGeometry>
        </mxCell>
        <mxCell id="Pn55WwUbl9glCkxLtIN9-32" value="" style="endArrow=classic;html=1;rounded=0;exitX=1;exitY=0.5;exitDx=0;exitDy=0;entryX=0;entryY=0.5;entryDx=0;entryDy=0;" edge="1" parent="1" source="Pn55WwUbl9glCkxLtIN9-9" target="Pn55WwUbl9glCkxLtIN9-6">
          <mxGeometry width="50" height="50" relative="1" as="geometry">
            <mxPoint x="520" y="410" as="sourcePoint" />
            <mxPoint x="570" y="360" as="targetPoint" />
            <Array as="points">
              <mxPoint x="420" y="200" />
            </Array>
          </mxGeometry>
        </mxCell>
        <mxCell id="Pn55WwUbl9glCkxLtIN9-33" value="Jadwal penerbangan,&lt;div&gt;Data kursi&lt;/div&gt;" style="edgeLabel;html=1;align=center;verticalAlign=middle;resizable=0;points=[];" vertex="1" connectable="0" parent="Pn55WwUbl9glCkxLtIN9-32">
          <mxGeometry x="-0.0768" y="2" relative="1" as="geometry">
            <mxPoint as="offset" />
          </mxGeometry>
        </mxCell>
        <mxCell id="Pn55WwUbl9glCkxLtIN9-34" value="" style="endArrow=classic;html=1;rounded=0;exitX=1;exitY=0.5;exitDx=0;exitDy=0;entryX=-0.001;entryY=0.646;entryDx=0;entryDy=0;entryPerimeter=0;" edge="1" parent="1" source="Pn55WwUbl9glCkxLtIN9-4" target="Pn55WwUbl9glCkxLtIN9-28">
          <mxGeometry width="50" height="50" relative="1" as="geometry">
            <mxPoint x="260" y="550" as="sourcePoint" />
            <mxPoint x="630" y="440" as="targetPoint" />
            <Array as="points">
              <mxPoint x="500" y="429" />
            </Array>
          </mxGeometry>
        </mxCell>
        <mxCell id="Pn55WwUbl9glCkxLtIN9-35" value="" style="endArrow=classic;html=1;rounded=0;entryX=0.5;entryY=0;entryDx=0;entryDy=0;" edge="1" parent="1" target="Pn55WwUbl9glCkxLtIN9-9">
          <mxGeometry width="50" height="50" relative="1" as="geometry">
            <mxPoint x="670" y="410" as="sourcePoint" />
            <mxPoint x="100" y="120" as="targetPoint" />
            <Array as="points">
              <mxPoint x="670" y="120" />
              <mxPoint x="200" y="120" />
            </Array>
          </mxGeometry>
        </mxCell>
        <mxCell id="Pn55WwUbl9glCkxLtIN9-36" value="kode&lt;div&gt;Booking&lt;/div&gt;" style="edgeLabel;html=1;align=center;verticalAlign=middle;resizable=0;points=[];" vertex="1" connectable="0" parent="Pn55WwUbl9glCkxLtIN9-35">
          <mxGeometry x="-0.4195" y="-1" relative="1" as="geometry">
            <mxPoint as="offset" />
          </mxGeometry>
        </mxCell>
        <mxCell id="Pn55WwUbl9glCkxLtIN9-39" value="" style="endArrow=classic;html=1;rounded=0;entryX=0.5;entryY=0;entryDx=0;entryDy=0;" edge="1" parent="1" target="Pn55WwUbl9glCkxLtIN9-4">
          <mxGeometry width="50" height="50" relative="1" as="geometry">
            <mxPoint x="340" y="220" as="sourcePoint" />
            <mxPoint x="400" y="230" as="targetPoint" />
          </mxGeometry>
        </mxCell>
        <mxCell id="Pn55WwUbl9glCkxLtIN9-43" value="" style="endArrow=classic;html=1;rounded=0;exitX=1;exitY=0.5;exitDx=0;exitDy=0;entryX=0.261;entryY=0.019;entryDx=0;entryDy=0;entryPerimeter=0;" edge="1" parent="1" source="Pn55WwUbl9glCkxLtIN9-6" target="Pn55WwUbl9glCkxLtIN9-28">
          <mxGeometry width="50" height="50" relative="1" as="geometry">
            <mxPoint x="600" y="200" as="sourcePoint" />
            <mxPoint x="640" y="390" as="targetPoint" />
            <Array as="points">
              <mxPoint x="640" y="200" />
            </Array>
          </mxGeometry>
        </mxCell>
        <mxCell id="Pn55WwUbl9glCkxLtIN9-47" value="" style="endArrow=classic;html=1;rounded=0;exitX=0;exitY=0.5;exitDx=0;exitDy=0;" edge="1" parent="1" source="Pn55WwUbl9glCkxLtIN9-3">
          <mxGeometry width="50" height="50" relative="1" as="geometry">
            <mxPoint x="280" y="400" as="sourcePoint" />
            <mxPoint x="680" y="442" as="targetPoint" />
            <Array as="points">
              <mxPoint x="70" y="380" />
              <mxPoint x="70" y="550" />
              <mxPoint x="70" y="680" />
              <mxPoint x="380" y="680" />
              <mxPoint x="680" y="680" />
              <mxPoint x="680" y="610" />
            </Array>
          </mxGeometry>
        </mxCell>
        <mxCell id="Pn55WwUbl9glCkxLtIN9-49" value="" style="endArrow=classic;html=1;rounded=0;exitX=0.5;exitY=0;exitDx=0;exitDy=0;entryX=0;entryY=0.5;entryDx=0;entryDy=0;" edge="1" parent="1" source="Pn55WwUbl9glCkxLtIN9-5" target="Pn55WwUbl9glCkxLtIN9-9">
          <mxGeometry width="50" height="50" relative="1" as="geometry">
            <mxPoint x="40" y="250" as="sourcePoint" />
            <mxPoint x="90" y="200" as="targetPoint" />
            <Array as="points">
              <mxPoint x="70" y="200" />
            </Array>
          </mxGeometry>
        </mxCell>
        <mxCell id="Pn55WwUbl9glCkxLtIN9-50" value="Boarding&lt;div&gt;Pass&lt;/div&gt;" style="edgeLabel;html=1;align=center;verticalAlign=middle;resizable=0;points=[];" vertex="1" connectable="0" parent="Pn55WwUbl9glCkxLtIN9-49">
          <mxGeometry x="-0.4978" y="-2" relative="1" as="geometry">
            <mxPoint as="offset" />
          </mxGeometry>
        </mxCell>
      </root>
    </mxGraphModel>
  </diagram>
</mxfile>
